<mxfile host="app.diagrams.net" modified="2023-10-17T21:37:20.595Z" agent="Mozilla/5.0 (Windows NT 10.0; Win64; x64) AppleWebKit/537.36 (KHTML, like Gecko) Chrome/118.0.0.0 Safari/537.36" etag="vKPX9CR0eyOrHAcGnFb7" version="22.0.4" type="github">
  <diagram name="Page-1" id="F2Db6EsE22tc1pApD17u">
    <mxGraphModel dx="2260" dy="1798" grid="1" gridSize="10" guides="1" tooltips="1" connect="1" arrows="1" fold="1" page="1" pageScale="1" pageWidth="827" pageHeight="1169" math="0" shadow="0">
      <root>
        <mxCell id="0" />
        <mxCell id="1" parent="0" />
        <mxCell id="vt1Mo6RBGRAv-xdqvbCR-1" value="" style="rounded=0;whiteSpace=wrap;html=1;fillColor=#97D077;" vertex="1" parent="1">
          <mxGeometry x="40" y="110" width="120" height="60" as="geometry" />
        </mxCell>
        <mxCell id="vt1Mo6RBGRAv-xdqvbCR-2" value="ACTOR" style="text;html=1;strokeColor=none;fillColor=none;align=center;verticalAlign=middle;whiteSpace=wrap;rounded=0;fontStyle=1" vertex="1" parent="1">
          <mxGeometry x="70" y="125" width="60" height="30" as="geometry" />
        </mxCell>
        <mxCell id="vt1Mo6RBGRAv-xdqvbCR-3" value="" style="rhombus;whiteSpace=wrap;html=1;fillColor=#FFD966;" vertex="1" parent="1">
          <mxGeometry x="55" y="220" width="90" height="90" as="geometry" />
        </mxCell>
        <mxCell id="vt1Mo6RBGRAv-xdqvbCR-4" value="" style="endArrow=none;html=1;rounded=0;" edge="1" parent="1">
          <mxGeometry width="50" height="50" relative="1" as="geometry">
            <mxPoint x="-10" y="140" as="sourcePoint" />
            <mxPoint x="40" y="140" as="targetPoint" />
          </mxGeometry>
        </mxCell>
        <mxCell id="vt1Mo6RBGRAv-xdqvbCR-5" value="" style="endArrow=none;html=1;rounded=0;" edge="1" parent="1">
          <mxGeometry width="50" height="50" relative="1" as="geometry">
            <mxPoint x="-10" y="270" as="sourcePoint" />
            <mxPoint x="-10" y="140" as="targetPoint" />
          </mxGeometry>
        </mxCell>
        <mxCell id="vt1Mo6RBGRAv-xdqvbCR-6" value="" style="endArrow=none;html=1;rounded=0;" edge="1" parent="1">
          <mxGeometry width="50" height="50" relative="1" as="geometry">
            <mxPoint x="-10" y="265" as="sourcePoint" />
            <mxPoint x="55" y="264.5" as="targetPoint" />
          </mxGeometry>
        </mxCell>
        <mxCell id="vt1Mo6RBGRAv-xdqvbCR-7" value="" style="endArrow=none;html=1;rounded=0;entryX=0.5;entryY=1;entryDx=0;entryDy=0;" edge="1" parent="1" target="vt1Mo6RBGRAv-xdqvbCR-1">
          <mxGeometry width="50" height="50" relative="1" as="geometry">
            <mxPoint x="100" y="220" as="sourcePoint" />
            <mxPoint x="150" y="180" as="targetPoint" />
          </mxGeometry>
        </mxCell>
        <mxCell id="vt1Mo6RBGRAv-xdqvbCR-9" value="es protagonista" style="text;html=1;strokeColor=none;fillColor=none;align=center;verticalAlign=middle;whiteSpace=wrap;rounded=0;" vertex="1" parent="1">
          <mxGeometry x="70" y="245" width="60" height="30" as="geometry" />
        </mxCell>
        <mxCell id="vt1Mo6RBGRAv-xdqvbCR-10" value="" style="endArrow=none;html=1;rounded=0;" edge="1" parent="1">
          <mxGeometry width="50" height="50" relative="1" as="geometry">
            <mxPoint x="160" y="140" as="sourcePoint" />
            <mxPoint x="280" y="140" as="targetPoint" />
          </mxGeometry>
        </mxCell>
        <mxCell id="vt1Mo6RBGRAv-xdqvbCR-11" value="" style="rhombus;whiteSpace=wrap;html=1;fillColor=#FFD966;" vertex="1" parent="1">
          <mxGeometry x="280" y="100" width="80" height="80" as="geometry" />
        </mxCell>
        <mxCell id="vt1Mo6RBGRAv-xdqvbCR-12" value="interpreta" style="text;html=1;strokeColor=none;fillColor=none;align=center;verticalAlign=middle;whiteSpace=wrap;rounded=0;" vertex="1" parent="1">
          <mxGeometry x="290" y="125" width="60" height="30" as="geometry" />
        </mxCell>
        <mxCell id="vt1Mo6RBGRAv-xdqvbCR-13" value="" style="endArrow=none;html=1;rounded=0;" edge="1" parent="1">
          <mxGeometry width="50" height="50" relative="1" as="geometry">
            <mxPoint x="360" y="140" as="sourcePoint" />
            <mxPoint x="490" y="140" as="targetPoint" />
          </mxGeometry>
        </mxCell>
        <mxCell id="vt1Mo6RBGRAv-xdqvbCR-14" value="" style="rounded=0;whiteSpace=wrap;html=1;fillColor=#97D077;" vertex="1" parent="1">
          <mxGeometry x="490" y="110" width="120" height="60" as="geometry" />
        </mxCell>
        <mxCell id="vt1Mo6RBGRAv-xdqvbCR-15" value="&lt;b&gt;PERSONAJE&lt;/b&gt;" style="text;html=1;strokeColor=none;fillColor=none;align=center;verticalAlign=middle;whiteSpace=wrap;rounded=0;" vertex="1" parent="1">
          <mxGeometry x="520" y="125" width="60" height="30" as="geometry" />
        </mxCell>
        <mxCell id="vt1Mo6RBGRAv-xdqvbCR-16" value="" style="endArrow=none;html=1;rounded=0;" edge="1" parent="1">
          <mxGeometry width="50" height="50" relative="1" as="geometry">
            <mxPoint x="610" y="140" as="sourcePoint" />
            <mxPoint x="760" y="140" as="targetPoint" />
          </mxGeometry>
        </mxCell>
        <mxCell id="vt1Mo6RBGRAv-xdqvbCR-17" value="" style="rounded=0;whiteSpace=wrap;html=1;fillColor=#97D077;" vertex="1" parent="1">
          <mxGeometry x="980" y="110" width="120" height="60" as="geometry" />
        </mxCell>
        <mxCell id="vt1Mo6RBGRAv-xdqvbCR-18" value="" style="rhombus;whiteSpace=wrap;html=1;fillColor=#FFD966;" vertex="1" parent="1">
          <mxGeometry x="760" y="100" width="80" height="80" as="geometry" />
        </mxCell>
        <mxCell id="vt1Mo6RBGRAv-xdqvbCR-19" value="sale en&amp;nbsp;" style="text;html=1;strokeColor=none;fillColor=none;align=center;verticalAlign=middle;whiteSpace=wrap;rounded=0;" vertex="1" parent="1">
          <mxGeometry x="770" y="125" width="60" height="30" as="geometry" />
        </mxCell>
        <mxCell id="vt1Mo6RBGRAv-xdqvbCR-20" value="" style="endArrow=none;html=1;rounded=0;" edge="1" parent="1">
          <mxGeometry width="50" height="50" relative="1" as="geometry">
            <mxPoint x="610" y="110" as="sourcePoint" />
            <mxPoint x="800" y="-70" as="targetPoint" />
          </mxGeometry>
        </mxCell>
        <mxCell id="vt1Mo6RBGRAv-xdqvbCR-21" value="" style="rhombus;whiteSpace=wrap;html=1;fillColor=#FFD966;" vertex="1" parent="1">
          <mxGeometry x="800" y="-110" width="80" height="80" as="geometry" />
        </mxCell>
        <mxCell id="vt1Mo6RBGRAv-xdqvbCR-22" value="aparece en" style="text;html=1;strokeColor=none;fillColor=none;align=center;verticalAlign=middle;whiteSpace=wrap;rounded=0;" vertex="1" parent="1">
          <mxGeometry x="810" y="-85" width="60" height="30" as="geometry" />
        </mxCell>
        <mxCell id="vt1Mo6RBGRAv-xdqvbCR-23" value="" style="endArrow=none;html=1;rounded=0;" edge="1" parent="1">
          <mxGeometry width="50" height="50" relative="1" as="geometry">
            <mxPoint x="840" y="140" as="sourcePoint" />
            <mxPoint x="980" y="140" as="targetPoint" />
          </mxGeometry>
        </mxCell>
        <mxCell id="vt1Mo6RBGRAv-xdqvbCR-24" value="&lt;b&gt;PELÍCULA&lt;/b&gt;" style="text;html=1;strokeColor=none;fillColor=none;align=center;verticalAlign=middle;whiteSpace=wrap;rounded=0;" vertex="1" parent="1">
          <mxGeometry x="1010" y="125" width="60" height="30" as="geometry" />
        </mxCell>
        <mxCell id="vt1Mo6RBGRAv-xdqvbCR-25" value="" style="endArrow=none;html=1;rounded=0;" edge="1" parent="1">
          <mxGeometry width="50" height="50" relative="1" as="geometry">
            <mxPoint x="880" y="-70" as="sourcePoint" />
            <mxPoint x="1030" y="-70" as="targetPoint" />
          </mxGeometry>
        </mxCell>
        <mxCell id="vt1Mo6RBGRAv-xdqvbCR-26" value="" style="rounded=0;whiteSpace=wrap;html=1;fillColor=#97D077;" vertex="1" parent="1">
          <mxGeometry x="1030" y="-100" width="120" height="60" as="geometry" />
        </mxCell>
        <mxCell id="vt1Mo6RBGRAv-xdqvbCR-27" value="CAPÍTULOS" style="text;html=1;strokeColor=none;fillColor=none;align=center;verticalAlign=middle;whiteSpace=wrap;rounded=0;fontStyle=1" vertex="1" parent="1">
          <mxGeometry x="1060" y="-85" width="60" height="30" as="geometry" />
        </mxCell>
        <mxCell id="vt1Mo6RBGRAv-xdqvbCR-28" value="" style="endArrow=none;html=1;rounded=0;" edge="1" parent="1">
          <mxGeometry width="50" height="50" relative="1" as="geometry">
            <mxPoint x="1150" y="-70" as="sourcePoint" />
            <mxPoint x="1300" y="-70" as="targetPoint" />
          </mxGeometry>
        </mxCell>
        <mxCell id="vt1Mo6RBGRAv-xdqvbCR-29" value="" style="rhombus;whiteSpace=wrap;html=1;fillColor=#FFD966;" vertex="1" parent="1">
          <mxGeometry x="1300" y="-110" width="80" height="80" as="geometry" />
        </mxCell>
        <mxCell id="vt1Mo6RBGRAv-xdqvbCR-30" value="donde visitan" style="text;html=1;strokeColor=none;fillColor=none;align=center;verticalAlign=middle;whiteSpace=wrap;rounded=0;" vertex="1" parent="1">
          <mxGeometry x="1310" y="-85" width="60" height="30" as="geometry" />
        </mxCell>
        <mxCell id="vt1Mo6RBGRAv-xdqvbCR-31" value="" style="endArrow=none;html=1;rounded=0;" edge="1" parent="1">
          <mxGeometry width="50" height="50" relative="1" as="geometry">
            <mxPoint x="1380" y="-70" as="sourcePoint" />
            <mxPoint x="1511.60009765625" y="-70" as="targetPoint" />
          </mxGeometry>
        </mxCell>
        <mxCell id="vt1Mo6RBGRAv-xdqvbCR-32" value="" style="rounded=0;whiteSpace=wrap;html=1;fillColor=#97D077;" vertex="1" parent="1">
          <mxGeometry x="1510" y="-100" width="120" height="60" as="geometry" />
        </mxCell>
        <mxCell id="vt1Mo6RBGRAv-xdqvbCR-33" value="&lt;b&gt;PLANETAS&lt;/b&gt;" style="text;html=1;strokeColor=none;fillColor=none;align=center;verticalAlign=middle;whiteSpace=wrap;rounded=0;" vertex="1" parent="1">
          <mxGeometry x="1540" y="-85" width="60" height="30" as="geometry" />
        </mxCell>
        <mxCell id="vt1Mo6RBGRAv-xdqvbCR-34" value="" style="endArrow=none;html=1;rounded=0;" edge="1" parent="1">
          <mxGeometry width="50" height="50" relative="1" as="geometry">
            <mxPoint x="1762.39990234375" y="50" as="sourcePoint" />
            <mxPoint x="1630" y="-40" as="targetPoint" />
          </mxGeometry>
        </mxCell>
        <mxCell id="vt1Mo6RBGRAv-xdqvbCR-35" value="" style="rhombus;whiteSpace=wrap;html=1;fillColor=#FFD966;" vertex="1" parent="1">
          <mxGeometry x="1760" y="10" width="80" height="80" as="geometry" />
        </mxCell>
        <mxCell id="vt1Mo6RBGRAv-xdqvbCR-36" value="viajan en" style="text;html=1;strokeColor=none;fillColor=none;align=center;verticalAlign=middle;whiteSpace=wrap;rounded=0;" vertex="1" parent="1">
          <mxGeometry x="1770" y="35" width="60" height="30" as="geometry" />
        </mxCell>
        <mxCell id="vt1Mo6RBGRAv-xdqvbCR-37" value="" style="endArrow=none;html=1;rounded=0;" edge="1" parent="1">
          <mxGeometry width="50" height="50" relative="1" as="geometry">
            <mxPoint x="1840" y="50" as="sourcePoint" />
            <mxPoint x="1940" y="50" as="targetPoint" />
          </mxGeometry>
        </mxCell>
        <mxCell id="vt1Mo6RBGRAv-xdqvbCR-39" value="" style="rounded=0;whiteSpace=wrap;html=1;fillColor=#97D077;" vertex="1" parent="1">
          <mxGeometry x="1940" y="20" width="120" height="60" as="geometry" />
        </mxCell>
        <mxCell id="vt1Mo6RBGRAv-xdqvbCR-40" value="NAVES" style="text;html=1;strokeColor=none;fillColor=none;align=center;verticalAlign=middle;whiteSpace=wrap;rounded=0;fontStyle=1" vertex="1" parent="1">
          <mxGeometry x="1970" y="35" width="60" height="30" as="geometry" />
        </mxCell>
        <mxCell id="vt1Mo6RBGRAv-xdqvbCR-41" value="" style="endArrow=none;html=1;rounded=0;" edge="1" parent="1">
          <mxGeometry width="50" height="50" relative="1" as="geometry">
            <mxPoint x="2000" y="190" as="sourcePoint" />
            <mxPoint x="2000" y="80" as="targetPoint" />
          </mxGeometry>
        </mxCell>
        <mxCell id="vt1Mo6RBGRAv-xdqvbCR-42" value="" style="rhombus;whiteSpace=wrap;html=1;fillColor=#FFD966;" vertex="1" parent="1">
          <mxGeometry x="1960" y="190" width="80" height="80" as="geometry" />
        </mxCell>
        <mxCell id="vt1Mo6RBGRAv-xdqvbCR-43" value="pertenecen a" style="text;html=1;strokeColor=none;fillColor=none;align=center;verticalAlign=middle;whiteSpace=wrap;rounded=0;" vertex="1" parent="1">
          <mxGeometry x="1970" y="220" width="60" height="30" as="geometry" />
        </mxCell>
        <mxCell id="vt1Mo6RBGRAv-xdqvbCR-44" value="" style="endArrow=none;html=1;rounded=0;" edge="1" parent="1">
          <mxGeometry width="50" height="50" relative="1" as="geometry">
            <mxPoint x="2000" y="360" as="sourcePoint" />
            <mxPoint x="2000" y="270" as="targetPoint" />
          </mxGeometry>
        </mxCell>
        <mxCell id="vt1Mo6RBGRAv-xdqvbCR-47" value="" style="endArrow=none;html=1;rounded=0;" edge="1" parent="1">
          <mxGeometry width="50" height="50" relative="1" as="geometry">
            <mxPoint x="40" y="110" as="sourcePoint" />
            <mxPoint y="40" as="targetPoint" />
          </mxGeometry>
        </mxCell>
        <mxCell id="vt1Mo6RBGRAv-xdqvbCR-49" value="id" style="ellipse;whiteSpace=wrap;html=1;align=center;fontStyle=4;fillColor=#7EA6E0;" vertex="1" parent="1">
          <mxGeometry x="-100" y="20" width="100" height="40" as="geometry" />
        </mxCell>
        <mxCell id="vt1Mo6RBGRAv-xdqvbCR-50" value="fecha_nacimiento" style="ellipse;whiteSpace=wrap;html=1;align=center;" vertex="1" parent="1">
          <mxGeometry x="40" y="-10" width="100" height="40" as="geometry" />
        </mxCell>
        <mxCell id="vt1Mo6RBGRAv-xdqvbCR-51" value="" style="endArrow=none;html=1;rounded=0;entryX=0.5;entryY=1;entryDx=0;entryDy=0;" edge="1" parent="1" target="vt1Mo6RBGRAv-xdqvbCR-50">
          <mxGeometry width="50" height="50" relative="1" as="geometry">
            <mxPoint x="90" y="110" as="sourcePoint" />
            <mxPoint x="140" y="60" as="targetPoint" />
          </mxGeometry>
        </mxCell>
        <mxCell id="vt1Mo6RBGRAv-xdqvbCR-52" value="" style="endArrow=none;html=1;rounded=0;" edge="1" parent="1">
          <mxGeometry width="50" height="50" relative="1" as="geometry">
            <mxPoint x="160" y="110" as="sourcePoint" />
            <mxPoint x="190" y="20" as="targetPoint" />
          </mxGeometry>
        </mxCell>
        <mxCell id="vt1Mo6RBGRAv-xdqvbCR-53" value="nacionalidad" style="ellipse;whiteSpace=wrap;html=1;align=center;" vertex="1" parent="1">
          <mxGeometry x="150" y="-20" width="100" height="40" as="geometry" />
        </mxCell>
        <mxCell id="vt1Mo6RBGRAv-xdqvbCR-54" value="" style="endArrow=none;html=1;rounded=0;entryX=1;entryY=1;entryDx=0;entryDy=0;" edge="1" parent="1" target="vt1Mo6RBGRAv-xdqvbCR-55">
          <mxGeometry width="50" height="50" relative="1" as="geometry">
            <mxPoint x="490" y="110" as="sourcePoint" />
            <mxPoint x="460" y="50" as="targetPoint" />
          </mxGeometry>
        </mxCell>
        <mxCell id="vt1Mo6RBGRAv-xdqvbCR-55" value="id" style="ellipse;whiteSpace=wrap;html=1;align=center;fontStyle=4;fillColor=#7EA6E0;" vertex="1" parent="1">
          <mxGeometry x="364" y="20" width="100" height="40" as="geometry" />
        </mxCell>
        <mxCell id="vt1Mo6RBGRAv-xdqvbCR-56" value="graduación_militar" style="ellipse;whiteSpace=wrap;html=1;align=center;" vertex="1" parent="1">
          <mxGeometry x="430" y="-30" width="110" height="40" as="geometry" />
        </mxCell>
        <mxCell id="vt1Mo6RBGRAv-xdqvbCR-57" value="" style="endArrow=none;html=1;rounded=0;entryX=0.5;entryY=1;entryDx=0;entryDy=0;" edge="1" parent="1" target="vt1Mo6RBGRAv-xdqvbCR-56">
          <mxGeometry width="50" height="50" relative="1" as="geometry">
            <mxPoint x="510" y="110" as="sourcePoint" />
            <mxPoint x="560" y="60" as="targetPoint" />
          </mxGeometry>
        </mxCell>
        <mxCell id="vt1Mo6RBGRAv-xdqvbCR-58" value="" style="endArrow=none;html=1;rounded=0;" edge="1" parent="1">
          <mxGeometry width="50" height="50" relative="1" as="geometry">
            <mxPoint x="550" y="110" as="sourcePoint" />
            <mxPoint x="550" y="-40" as="targetPoint" />
          </mxGeometry>
        </mxCell>
        <mxCell id="vt1Mo6RBGRAv-xdqvbCR-59" value="nombre" style="ellipse;whiteSpace=wrap;html=1;align=center;" vertex="1" parent="1">
          <mxGeometry x="500" y="-80" width="100" height="40" as="geometry" />
        </mxCell>
        <mxCell id="vt1Mo6RBGRAv-xdqvbCR-60" value="" style="endArrow=none;html=1;rounded=0;" edge="1" parent="1">
          <mxGeometry width="50" height="50" relative="1" as="geometry">
            <mxPoint x="550" y="200" as="sourcePoint" />
            <mxPoint x="550" y="170" as="targetPoint" />
          </mxGeometry>
        </mxCell>
        <mxCell id="vt1Mo6RBGRAv-xdqvbCR-61" value="" style="ellipse;whiteSpace=wrap;html=1;aspect=fixed;" vertex="1" parent="1">
          <mxGeometry x="545" y="200" width="10" height="10" as="geometry" />
        </mxCell>
        <mxCell id="vt1Mo6RBGRAv-xdqvbCR-63" value="" style="triangle;whiteSpace=wrap;html=1;rotation=90;fillColor=#FFD966;" vertex="1" parent="1">
          <mxGeometry x="520" y="200" width="60" height="80" as="geometry" />
        </mxCell>
        <mxCell id="vt1Mo6RBGRAv-xdqvbCR-64" value="" style="endArrow=none;html=1;rounded=0;" edge="1" parent="1">
          <mxGeometry width="50" height="50" relative="1" as="geometry">
            <mxPoint x="590" y="210" as="sourcePoint" />
            <mxPoint x="610" y="210" as="targetPoint" />
          </mxGeometry>
        </mxCell>
        <mxCell id="vt1Mo6RBGRAv-xdqvbCR-65" value="tipo" style="ellipse;whiteSpace=wrap;html=1;align=center;" vertex="1" parent="1">
          <mxGeometry x="610" y="190" width="50" height="40" as="geometry" />
        </mxCell>
        <mxCell id="vt1Mo6RBGRAv-xdqvbCR-66" value="" style="endArrow=none;html=1;rounded=0;" edge="1" parent="1">
          <mxGeometry width="50" height="50" relative="1" as="geometry">
            <mxPoint x="480" y="290" as="sourcePoint" />
            <mxPoint x="530" y="240" as="targetPoint" />
          </mxGeometry>
        </mxCell>
        <mxCell id="vt1Mo6RBGRAv-xdqvbCR-67" value="" style="endArrow=none;html=1;rounded=0;" edge="1" parent="1">
          <mxGeometry width="50" height="50" relative="1" as="geometry">
            <mxPoint x="550" y="320" as="sourcePoint" />
            <mxPoint x="550" y="270" as="targetPoint" />
          </mxGeometry>
        </mxCell>
        <mxCell id="vt1Mo6RBGRAv-xdqvbCR-68" value="" style="endArrow=none;html=1;rounded=0;entryX=0.5;entryY=0;entryDx=0;entryDy=0;" edge="1" parent="1" target="vt1Mo6RBGRAv-xdqvbCR-63">
          <mxGeometry width="50" height="50" relative="1" as="geometry">
            <mxPoint x="630" y="290" as="sourcePoint" />
            <mxPoint x="620" y="250" as="targetPoint" />
          </mxGeometry>
        </mxCell>
        <mxCell id="vt1Mo6RBGRAv-xdqvbCR-69" value="" style="rounded=0;whiteSpace=wrap;html=1;fillColor=#97D077;" vertex="1" parent="1">
          <mxGeometry x="390" y="290" width="90" height="40" as="geometry" />
        </mxCell>
        <mxCell id="vt1Mo6RBGRAv-xdqvbCR-70" value="" style="rounded=0;whiteSpace=wrap;html=1;fillColor=#97D077;" vertex="1" parent="1">
          <mxGeometry x="505" y="320" width="90" height="40" as="geometry" />
        </mxCell>
        <mxCell id="vt1Mo6RBGRAv-xdqvbCR-71" value="" style="rounded=0;whiteSpace=wrap;html=1;fillColor=#97D077;" vertex="1" parent="1">
          <mxGeometry x="630" y="290" width="90" height="40" as="geometry" />
        </mxCell>
        <mxCell id="vt1Mo6RBGRAv-xdqvbCR-72" value="humano" style="text;html=1;strokeColor=none;fillColor=none;align=center;verticalAlign=middle;whiteSpace=wrap;rounded=0;fontStyle=1" vertex="1" parent="1">
          <mxGeometry x="404" y="295" width="60" height="30" as="geometry" />
        </mxCell>
        <mxCell id="vt1Mo6RBGRAv-xdqvbCR-73" value="&lt;b&gt;vulcano&lt;/b&gt;" style="text;html=1;strokeColor=none;fillColor=none;align=center;verticalAlign=middle;whiteSpace=wrap;rounded=0;" vertex="1" parent="1">
          <mxGeometry x="520" y="325" width="60" height="30" as="geometry" />
        </mxCell>
        <mxCell id="vt1Mo6RBGRAv-xdqvbCR-74" value="&lt;b&gt;klingon&lt;/b&gt;" style="text;html=1;strokeColor=none;fillColor=none;align=center;verticalAlign=middle;whiteSpace=wrap;rounded=0;" vertex="1" parent="1">
          <mxGeometry x="645" y="295" width="60" height="30" as="geometry" />
        </mxCell>
        <mxCell id="vt1Mo6RBGRAv-xdqvbCR-75" value="" style="endArrow=none;html=1;rounded=0;exitX=1;exitY=0;exitDx=0;exitDy=0;" edge="1" parent="1" source="vt1Mo6RBGRAv-xdqvbCR-77">
          <mxGeometry width="50" height="50" relative="1" as="geometry">
            <mxPoint x="310" y="340" as="sourcePoint" />
            <mxPoint x="390" y="290" as="targetPoint" />
          </mxGeometry>
        </mxCell>
        <mxCell id="vt1Mo6RBGRAv-xdqvbCR-76" value="" style="endArrow=none;html=1;rounded=0;exitX=1;exitY=0;exitDx=0;exitDy=0;" edge="1" parent="1" source="vt1Mo6RBGRAv-xdqvbCR-78">
          <mxGeometry width="50" height="50" relative="1" as="geometry">
            <mxPoint x="340" y="400" as="sourcePoint" />
            <mxPoint x="390" y="330" as="targetPoint" />
          </mxGeometry>
        </mxCell>
        <mxCell id="vt1Mo6RBGRAv-xdqvbCR-77" value="fecha_nacimiento" style="ellipse;whiteSpace=wrap;html=1;align=center;" vertex="1" parent="1">
          <mxGeometry x="220" y="335" width="100" height="40" as="geometry" />
        </mxCell>
        <mxCell id="vt1Mo6RBGRAv-xdqvbCR-78" value="ciudad_terráquea" style="ellipse;whiteSpace=wrap;html=1;align=center;" vertex="1" parent="1">
          <mxGeometry x="240" y="380" width="100" height="40" as="geometry" />
        </mxCell>
        <mxCell id="vt1Mo6RBGRAv-xdqvbCR-79" value="" style="endArrow=none;html=1;rounded=0;entryX=0;entryY=1;entryDx=0;entryDy=0;" edge="1" parent="1" target="vt1Mo6RBGRAv-xdqvbCR-70">
          <mxGeometry width="50" height="50" relative="1" as="geometry">
            <mxPoint x="480" y="420" as="sourcePoint" />
            <mxPoint x="500" y="370" as="targetPoint" />
          </mxGeometry>
        </mxCell>
        <mxCell id="vt1Mo6RBGRAv-xdqvbCR-80" value="" style="endArrow=none;html=1;rounded=0;entryX=1;entryY=1;entryDx=0;entryDy=0;exitX=0.4;exitY=0.025;exitDx=0;exitDy=0;exitPerimeter=0;" edge="1" parent="1" source="vt1Mo6RBGRAv-xdqvbCR-82" target="vt1Mo6RBGRAv-xdqvbCR-70">
          <mxGeometry width="50" height="50" relative="1" as="geometry">
            <mxPoint x="610" y="410" as="sourcePoint" />
            <mxPoint x="600" y="370" as="targetPoint" />
          </mxGeometry>
        </mxCell>
        <mxCell id="vt1Mo6RBGRAv-xdqvbCR-81" value="nombre_mento" style="ellipse;whiteSpace=wrap;html=1;align=center;" vertex="1" parent="1">
          <mxGeometry x="420" y="420" width="100" height="40" as="geometry" />
        </mxCell>
        <mxCell id="vt1Mo6RBGRAv-xdqvbCR-82" value="fecha_graduación" style="ellipse;whiteSpace=wrap;html=1;align=center;" vertex="1" parent="1">
          <mxGeometry x="555" y="420" width="100" height="40" as="geometry" />
        </mxCell>
        <mxCell id="vt1Mo6RBGRAv-xdqvbCR-83" value="" style="endArrow=none;html=1;rounded=0;" edge="1" parent="1">
          <mxGeometry width="50" height="50" relative="1" as="geometry">
            <mxPoint x="740" y="370" as="sourcePoint" />
            <mxPoint x="720" y="330" as="targetPoint" />
          </mxGeometry>
        </mxCell>
        <mxCell id="vt1Mo6RBGRAv-xdqvbCR-84" value="" style="endArrow=none;html=1;rounded=0;" edge="1" parent="1">
          <mxGeometry width="50" height="50" relative="1" as="geometry">
            <mxPoint x="720" y="290" as="sourcePoint" />
            <mxPoint x="790" y="320" as="targetPoint" />
          </mxGeometry>
        </mxCell>
        <mxCell id="vt1Mo6RBGRAv-xdqvbCR-85" value="último_combate" style="ellipse;whiteSpace=wrap;html=1;align=center;" vertex="1" parent="1">
          <mxGeometry x="780" y="310" width="100" height="40" as="geometry" />
        </mxCell>
        <mxCell id="vt1Mo6RBGRAv-xdqvbCR-86" value="planeta_natal" style="ellipse;whiteSpace=wrap;html=1;align=center;" vertex="1" parent="1">
          <mxGeometry x="720" y="365" width="100" height="40" as="geometry" />
        </mxCell>
        <mxCell id="vt1Mo6RBGRAv-xdqvbCR-87" value="(1:1)" style="text;html=1;strokeColor=none;fillColor=none;align=center;verticalAlign=middle;whiteSpace=wrap;rounded=0;" vertex="1" parent="1">
          <mxGeometry x="550" y="180" width="60" height="30" as="geometry" />
        </mxCell>
        <mxCell id="vt1Mo6RBGRAv-xdqvbCR-88" value="(1:0)" style="text;html=1;strokeColor=none;fillColor=none;align=center;verticalAlign=middle;whiteSpace=wrap;rounded=0;" vertex="1" parent="1">
          <mxGeometry x="405" y="265" width="60" height="30" as="geometry" />
        </mxCell>
        <mxCell id="vt1Mo6RBGRAv-xdqvbCR-89" value="(1:0)" style="text;html=1;strokeColor=none;fillColor=none;align=center;verticalAlign=middle;whiteSpace=wrap;rounded=0;" vertex="1" parent="1">
          <mxGeometry x="540" y="290" width="60" height="30" as="geometry" />
        </mxCell>
        <mxCell id="vt1Mo6RBGRAv-xdqvbCR-92" value="(1:0)" style="text;html=1;strokeColor=none;fillColor=none;align=center;verticalAlign=middle;whiteSpace=wrap;rounded=0;" vertex="1" parent="1">
          <mxGeometry x="645" y="265" width="60" height="30" as="geometry" />
        </mxCell>
        <mxCell id="vt1Mo6RBGRAv-xdqvbCR-93" value="" style="endArrow=none;html=1;rounded=0;" edge="1" parent="1">
          <mxGeometry width="50" height="50" relative="1" as="geometry">
            <mxPoint x="1100" y="110" as="sourcePoint" />
            <mxPoint x="1130" y="90" as="targetPoint" />
          </mxGeometry>
        </mxCell>
        <mxCell id="vt1Mo6RBGRAv-xdqvbCR-94" value="" style="endArrow=none;html=1;rounded=0;" edge="1" parent="1">
          <mxGeometry width="50" height="50" relative="1" as="geometry">
            <mxPoint x="1100" y="170" as="sourcePoint" />
            <mxPoint x="1130" y="190" as="targetPoint" />
          </mxGeometry>
        </mxCell>
        <mxCell id="vt1Mo6RBGRAv-xdqvbCR-95" value="año_lanzamiento" style="ellipse;whiteSpace=wrap;html=1;align=center;" vertex="1" parent="1">
          <mxGeometry x="1130" y="70" width="100" height="40" as="geometry" />
        </mxCell>
        <mxCell id="vt1Mo6RBGRAv-xdqvbCR-96" value="título" style="ellipse;whiteSpace=wrap;html=1;align=center;" vertex="1" parent="1">
          <mxGeometry x="1120" y="180" width="100" height="40" as="geometry" />
        </mxCell>
        <mxCell id="vt1Mo6RBGRAv-xdqvbCR-97" value="" style="endArrow=none;html=1;rounded=0;" edge="1" parent="1">
          <mxGeometry width="50" height="50" relative="1" as="geometry">
            <mxPoint x="1100" y="140" as="sourcePoint" />
            <mxPoint x="1130" y="140" as="targetPoint" />
          </mxGeometry>
        </mxCell>
        <mxCell id="vt1Mo6RBGRAv-xdqvbCR-99" value="id" style="ellipse;whiteSpace=wrap;html=1;align=center;fontStyle=4;fillColor=#7EA6E0;" vertex="1" parent="1">
          <mxGeometry x="1130" y="120" width="100" height="40" as="geometry" />
        </mxCell>
        <mxCell id="vt1Mo6RBGRAv-xdqvbCR-100" value="" style="endArrow=none;html=1;rounded=0;" edge="1" parent="1">
          <mxGeometry width="50" height="50" relative="1" as="geometry">
            <mxPoint x="1030" y="-100" as="sourcePoint" />
            <mxPoint x="910" y="-260" as="targetPoint" />
          </mxGeometry>
        </mxCell>
        <mxCell id="vt1Mo6RBGRAv-xdqvbCR-101" value="&lt;span style=&quot;border-bottom: 1px dotted&quot;&gt;id&lt;/span&gt;" style="ellipse;whiteSpace=wrap;html=1;align=center;fillColor=#7EA6E0;" vertex="1" parent="1">
          <mxGeometry x="810" y="-280" width="100" height="40" as="geometry" />
        </mxCell>
        <mxCell id="vt1Mo6RBGRAv-xdqvbCR-102" value="" style="endArrow=none;html=1;rounded=0;" edge="1" parent="1">
          <mxGeometry width="50" height="50" relative="1" as="geometry">
            <mxPoint x="1040" y="-100" as="sourcePoint" />
            <mxPoint x="920" y="-320" as="targetPoint" />
          </mxGeometry>
        </mxCell>
        <mxCell id="vt1Mo6RBGRAv-xdqvbCR-103" value="temporada" style="ellipse;whiteSpace=wrap;html=1;align=center;" vertex="1" parent="1">
          <mxGeometry x="820" y="-340" width="100" height="40" as="geometry" />
        </mxCell>
        <mxCell id="vt1Mo6RBGRAv-xdqvbCR-104" value="" style="endArrow=none;html=1;rounded=0;exitX=0.25;exitY=0;exitDx=0;exitDy=0;" edge="1" parent="1" source="vt1Mo6RBGRAv-xdqvbCR-26">
          <mxGeometry width="50" height="50" relative="1" as="geometry">
            <mxPoint x="1060" y="-100" as="sourcePoint" />
            <mxPoint x="980" y="-320" as="targetPoint" />
          </mxGeometry>
        </mxCell>
        <mxCell id="vt1Mo6RBGRAv-xdqvbCR-105" value="título" style="ellipse;whiteSpace=wrap;html=1;align=center;" vertex="1" parent="1">
          <mxGeometry x="920" y="-360" width="100" height="40" as="geometry" />
        </mxCell>
        <mxCell id="vt1Mo6RBGRAv-xdqvbCR-106" value="" style="endArrow=none;html=1;rounded=0;" edge="1" parent="1">
          <mxGeometry width="50" height="50" relative="1" as="geometry">
            <mxPoint x="1080" y="-100" as="sourcePoint" />
            <mxPoint x="1060" y="-360" as="targetPoint" />
          </mxGeometry>
        </mxCell>
        <mxCell id="vt1Mo6RBGRAv-xdqvbCR-107" value="orden" style="ellipse;whiteSpace=wrap;html=1;align=center;" vertex="1" parent="1">
          <mxGeometry x="1000" y="-400" width="100" height="40" as="geometry" />
        </mxCell>
        <mxCell id="vt1Mo6RBGRAv-xdqvbCR-108" value="" style="endArrow=none;html=1;rounded=0;" edge="1" parent="1">
          <mxGeometry width="50" height="50" relative="1" as="geometry">
            <mxPoint x="1110" y="-100" as="sourcePoint" />
            <mxPoint x="1120" y="-290" as="targetPoint" />
          </mxGeometry>
        </mxCell>
        <mxCell id="vt1Mo6RBGRAv-xdqvbCR-110" value="primera_edición" style="ellipse;whiteSpace=wrap;html=1;align=center;" vertex="1" parent="1">
          <mxGeometry x="1070" y="-330" width="100" height="40" as="geometry" />
        </mxCell>
        <mxCell id="vt1Mo6RBGRAv-xdqvbCR-111" value="(1:N)" style="text;html=1;strokeColor=none;fillColor=none;align=center;verticalAlign=middle;whiteSpace=wrap;rounded=0;" vertex="1" parent="1">
          <mxGeometry x="1140" y="-100" width="60" height="30" as="geometry" />
        </mxCell>
        <mxCell id="vt1Mo6RBGRAv-xdqvbCR-112" value="(1:N)" style="text;html=1;strokeColor=none;fillColor=none;align=center;verticalAlign=middle;whiteSpace=wrap;rounded=0;" vertex="1" parent="1">
          <mxGeometry x="1461" y="-100" width="60" height="30" as="geometry" />
        </mxCell>
        <mxCell id="vt1Mo6RBGRAv-xdqvbCR-113" value="(N:M)" style="text;html=1;strokeColor=none;fillColor=none;align=center;verticalAlign=middle;whiteSpace=wrap;rounded=0;" vertex="1" parent="1">
          <mxGeometry x="1310" y="-140" width="60" height="30" as="geometry" />
        </mxCell>
        <mxCell id="vt1Mo6RBGRAv-xdqvbCR-114" value="&lt;b&gt;LANZADERA&lt;/b&gt;" style="shape=ext;margin=3;double=1;whiteSpace=wrap;html=1;align=center;fillColor=#97D077;" vertex="1" parent="1">
          <mxGeometry x="1940" y="360" width="120" height="65" as="geometry" />
        </mxCell>
        <mxCell id="vt1Mo6RBGRAv-xdqvbCR-116" value="" style="endArrow=none;html=1;rounded=0;" edge="1" parent="1">
          <mxGeometry width="50" height="50" relative="1" as="geometry">
            <mxPoint x="1510" y="-100" as="sourcePoint" />
            <mxPoint x="1470" y="-200" as="targetPoint" />
          </mxGeometry>
        </mxCell>
        <mxCell id="vt1Mo6RBGRAv-xdqvbCR-118" value="id" style="ellipse;whiteSpace=wrap;html=1;align=center;fontStyle=4;fillColor=#7EA6E0;" vertex="1" parent="1">
          <mxGeometry x="1380" y="-230" width="100" height="40" as="geometry" />
        </mxCell>
        <mxCell id="vt1Mo6RBGRAv-xdqvbCR-119" value="" style="endArrow=none;html=1;rounded=0;" edge="1" parent="1">
          <mxGeometry width="50" height="50" relative="1" as="geometry">
            <mxPoint x="1540" y="-100" as="sourcePoint" />
            <mxPoint x="1520" y="-250" as="targetPoint" />
          </mxGeometry>
        </mxCell>
        <mxCell id="vt1Mo6RBGRAv-xdqvbCR-120" value="nombre" style="ellipse;whiteSpace=wrap;html=1;align=center;" vertex="1" parent="1">
          <mxGeometry x="1430" y="-280" width="100" height="40" as="geometry" />
        </mxCell>
        <mxCell id="vt1Mo6RBGRAv-xdqvbCR-121" value="" style="endArrow=none;html=1;rounded=0;" edge="1" parent="1">
          <mxGeometry width="50" height="50" relative="1" as="geometry">
            <mxPoint x="1570" y="-100" as="sourcePoint" />
            <mxPoint x="1560" y="-290" as="targetPoint" />
          </mxGeometry>
        </mxCell>
        <mxCell id="vt1Mo6RBGRAv-xdqvbCR-122" value="galaxia" style="ellipse;whiteSpace=wrap;html=1;align=center;" vertex="1" parent="1">
          <mxGeometry x="1500" y="-330" width="100" height="40" as="geometry" />
        </mxCell>
        <mxCell id="vt1Mo6RBGRAv-xdqvbCR-123" value="" style="endArrow=none;html=1;rounded=0;" edge="1" parent="1">
          <mxGeometry width="50" height="50" relative="1" as="geometry">
            <mxPoint x="1630" y="-100" as="sourcePoint" />
            <mxPoint x="1630" y="-230" as="targetPoint" />
          </mxGeometry>
        </mxCell>
        <mxCell id="vt1Mo6RBGRAv-xdqvbCR-124" value="problema_resuelto" style="ellipse;whiteSpace=wrap;html=1;align=center;" vertex="1" parent="1">
          <mxGeometry x="1570" y="-270" width="110" height="40" as="geometry" />
        </mxCell>
        <mxCell id="vt1Mo6RBGRAv-xdqvbCR-125" value="(1:0)" style="text;html=1;strokeColor=none;fillColor=none;align=center;verticalAlign=middle;whiteSpace=wrap;rounded=0;" vertex="1" parent="1">
          <mxGeometry x="150" y="110" width="60" height="30" as="geometry" />
        </mxCell>
        <mxCell id="vt1Mo6RBGRAv-xdqvbCR-126" value="(1:0)" style="text;html=1;strokeColor=none;fillColor=none;align=center;verticalAlign=middle;whiteSpace=wrap;rounded=0;" vertex="1" parent="1">
          <mxGeometry x="440" y="110" width="60" height="30" as="geometry" />
        </mxCell>
        <mxCell id="vt1Mo6RBGRAv-xdqvbCR-127" value="(1:1)" style="text;html=1;strokeColor=none;fillColor=none;align=center;verticalAlign=middle;whiteSpace=wrap;rounded=0;" vertex="1" parent="1">
          <mxGeometry x="290" y="75" width="60" height="30" as="geometry" />
        </mxCell>
        <mxCell id="vt1Mo6RBGRAv-xdqvbCR-128" value="" style="endArrow=none;html=1;rounded=0;" edge="1" parent="1">
          <mxGeometry width="50" height="50" relative="1" as="geometry">
            <mxPoint x="1940" y="20" as="sourcePoint" />
            <mxPoint x="1910" y="-40" as="targetPoint" />
          </mxGeometry>
        </mxCell>
        <mxCell id="vt1Mo6RBGRAv-xdqvbCR-129" value="nombre" style="ellipse;whiteSpace=wrap;html=1;align=center;" vertex="1" parent="1">
          <mxGeometry x="1830" y="-70" width="100" height="40" as="geometry" />
        </mxCell>
        <mxCell id="vt1Mo6RBGRAv-xdqvbCR-130" value="código" style="ellipse;whiteSpace=wrap;html=1;align=center;fontStyle=4;fillColor=#7EA6E0;" vertex="1" parent="1">
          <mxGeometry x="1900" y="-120" width="100" height="40" as="geometry" />
        </mxCell>
        <mxCell id="vt1Mo6RBGRAv-xdqvbCR-131" value="" style="endArrow=none;html=1;rounded=0;entryX=0.5;entryY=1;entryDx=0;entryDy=0;" edge="1" parent="1" target="vt1Mo6RBGRAv-xdqvbCR-130">
          <mxGeometry width="50" height="50" relative="1" as="geometry">
            <mxPoint x="1960" y="20" as="sourcePoint" />
            <mxPoint x="2010" y="-30" as="targetPoint" />
          </mxGeometry>
        </mxCell>
        <mxCell id="vt1Mo6RBGRAv-xdqvbCR-132" value="nº_tripulantes" style="ellipse;whiteSpace=wrap;html=1;align=center;" vertex="1" parent="1">
          <mxGeometry x="2018" y="-110" width="100" height="40" as="geometry" />
        </mxCell>
        <mxCell id="vt1Mo6RBGRAv-xdqvbCR-133" value="" style="endArrow=none;html=1;rounded=0;entryX=0.308;entryY=0.935;entryDx=0;entryDy=0;entryPerimeter=0;" edge="1" parent="1" target="vt1Mo6RBGRAv-xdqvbCR-132">
          <mxGeometry width="50" height="50" relative="1" as="geometry">
            <mxPoint x="2000" y="20" as="sourcePoint" />
            <mxPoint x="2050" y="-30" as="targetPoint" />
          </mxGeometry>
        </mxCell>
        <mxCell id="vt1Mo6RBGRAv-xdqvbCR-134" value="" style="endArrow=none;html=1;rounded=0;entryX=0;entryY=1;entryDx=0;entryDy=0;" edge="1" parent="1" target="vt1Mo6RBGRAv-xdqvbCR-114">
          <mxGeometry width="50" height="50" relative="1" as="geometry">
            <mxPoint x="1890" y="480" as="sourcePoint" />
            <mxPoint x="1940" y="430" as="targetPoint" />
          </mxGeometry>
        </mxCell>
        <mxCell id="vt1Mo6RBGRAv-xdqvbCR-135" value="" style="endArrow=none;html=1;rounded=0;entryX=0.5;entryY=1;entryDx=0;entryDy=0;" edge="1" parent="1" target="vt1Mo6RBGRAv-xdqvbCR-114">
          <mxGeometry width="50" height="50" relative="1" as="geometry">
            <mxPoint x="2000" y="490" as="sourcePoint" />
            <mxPoint x="2000" y="430" as="targetPoint" />
          </mxGeometry>
        </mxCell>
        <mxCell id="vt1Mo6RBGRAv-xdqvbCR-136" value="" style="endArrow=none;html=1;rounded=0;exitX=1;exitY=1;exitDx=0;exitDy=0;entryX=0;entryY=0;entryDx=0;entryDy=0;" edge="1" parent="1" source="vt1Mo6RBGRAv-xdqvbCR-114" target="vt1Mo6RBGRAv-xdqvbCR-139">
          <mxGeometry width="50" height="50" relative="1" as="geometry">
            <mxPoint x="2070" y="430" as="sourcePoint" />
            <mxPoint x="2120" y="480" as="targetPoint" />
          </mxGeometry>
        </mxCell>
        <mxCell id="vt1Mo6RBGRAv-xdqvbCR-137" value="código" style="ellipse;whiteSpace=wrap;html=1;align=center;fontStyle=4;fillColor=#7EA6E0;" vertex="1" parent="1">
          <mxGeometry x="1800" y="470" width="100" height="40" as="geometry" />
        </mxCell>
        <mxCell id="vt1Mo6RBGRAv-xdqvbCR-138" value="nº entero" style="ellipse;whiteSpace=wrap;html=1;align=center;" vertex="1" parent="1">
          <mxGeometry x="1950" y="490" width="100" height="40" as="geometry" />
        </mxCell>
        <mxCell id="vt1Mo6RBGRAv-xdqvbCR-139" value="capacidad" style="ellipse;whiteSpace=wrap;html=1;align=center;" vertex="1" parent="1">
          <mxGeometry x="2090" y="480" width="100" height="40" as="geometry" />
        </mxCell>
        <mxCell id="vt1Mo6RBGRAv-xdqvbCR-140" value="(1:N)" style="text;html=1;strokeColor=none;fillColor=none;align=center;verticalAlign=middle;whiteSpace=wrap;rounded=0;" vertex="1" parent="1">
          <mxGeometry x="605" y="110" width="60" height="30" as="geometry" />
        </mxCell>
        <mxCell id="vt1Mo6RBGRAv-xdqvbCR-142" value="(1:N)" style="text;whiteSpace=wrap;html=1;" vertex="1" parent="1">
          <mxGeometry x="940" y="110" width="60" height="40" as="geometry" />
        </mxCell>
        <mxCell id="vt1Mo6RBGRAv-xdqvbCR-143" value="(N:M)" style="text;whiteSpace=wrap;html=1;" vertex="1" parent="1">
          <mxGeometry x="780" y="70" width="60" height="40" as="geometry" />
        </mxCell>
        <mxCell id="vt1Mo6RBGRAv-xdqvbCR-144" value="(N:M)" style="text;html=1;strokeColor=none;fillColor=none;align=center;verticalAlign=middle;whiteSpace=wrap;rounded=0;" vertex="1" parent="1">
          <mxGeometry x="810" y="-140" width="60" height="30" as="geometry" />
        </mxCell>
        <mxCell id="vt1Mo6RBGRAv-xdqvbCR-145" value="(1:N)" style="text;html=1;strokeColor=none;fillColor=none;align=center;verticalAlign=middle;whiteSpace=wrap;rounded=0;" vertex="1" parent="1">
          <mxGeometry x="970" y="-100" width="60" height="30" as="geometry" />
        </mxCell>
        <mxCell id="vt1Mo6RBGRAv-xdqvbCR-146" value="(1:N)" style="text;html=1;strokeColor=none;fillColor=none;align=center;verticalAlign=middle;whiteSpace=wrap;rounded=0;" vertex="1" parent="1">
          <mxGeometry x="555" y="75" width="60" height="40" as="geometry" />
        </mxCell>
        <mxCell id="vt1Mo6RBGRAv-xdqvbCR-147" value="(1:N)" style="text;html=1;strokeColor=none;fillColor=none;align=center;verticalAlign=middle;whiteSpace=wrap;rounded=0;" vertex="1" parent="1">
          <mxGeometry x="1620" y="-75" width="60" height="30" as="geometry" />
        </mxCell>
        <mxCell id="vt1Mo6RBGRAv-xdqvbCR-148" value="(1:N)" style="text;html=1;strokeColor=none;fillColor=none;align=center;verticalAlign=middle;whiteSpace=wrap;rounded=0;" vertex="1" parent="1">
          <mxGeometry x="1880" y="25" width="60" height="30" as="geometry" />
        </mxCell>
        <mxCell id="vt1Mo6RBGRAv-xdqvbCR-149" value="(N:M)" style="text;html=1;strokeColor=none;fillColor=none;align=center;verticalAlign=middle;whiteSpace=wrap;rounded=0;" vertex="1" parent="1">
          <mxGeometry x="1770" y="-15" width="60" height="30" as="geometry" />
        </mxCell>
        <mxCell id="vt1Mo6RBGRAv-xdqvbCR-150" value="(1:N)" style="text;html=1;strokeColor=none;fillColor=none;align=center;verticalAlign=middle;whiteSpace=wrap;rounded=0;" vertex="1" parent="1">
          <mxGeometry x="1990" y="80" width="60" height="30" as="geometry" />
        </mxCell>
        <mxCell id="vt1Mo6RBGRAv-xdqvbCR-151" value="(1:0)" style="text;html=1;strokeColor=none;fillColor=none;align=center;verticalAlign=middle;whiteSpace=wrap;rounded=0;" vertex="1" parent="1">
          <mxGeometry x="1990" y="330" width="60" height="30" as="geometry" />
        </mxCell>
        <mxCell id="vt1Mo6RBGRAv-xdqvbCR-152" value="(1:N)" style="text;html=1;strokeColor=none;fillColor=none;align=center;verticalAlign=middle;whiteSpace=wrap;rounded=0;" vertex="1" parent="1">
          <mxGeometry x="2030" y="215" width="60" height="30" as="geometry" />
        </mxCell>
      </root>
    </mxGraphModel>
  </diagram>
</mxfile>
